#N canvas 0 66 1920 1014 10;
#X obj 52 110 *~ 2000;
#X obj 91 182 osc~;
#X obj 222 166 osc~;
#X obj 92 255 *~ 0.3;
#X obj 252 213 *~ 0.3;
#X obj 382 187 osc~;
#X obj 344 248 *~ 0.3;
#X obj 227 383 dac~;
#X obj 422 95 print hello;
#X obj 60 41 r Osc1 @owl A;
#X obj 18 76 s Send1 @owl F;
#X obj 230 334 +~;
#X obj 246 74 s Send2 @owl G;
#X obj 224 42 r Osc2 @owl B 0.25 0.75 0.5;
#X obj 234 120 *~ 2000;
#X obj 415 41 r Osc3 @owl C @owl_min 400 @owl_max 4000 @owl_default
800;
#X connect 0 0 1 0;
#X connect 1 0 3 0;
#X connect 2 0 4 0;
#X connect 3 0 11 0;
#X connect 4 0 11 0;
#X connect 5 0 6 0;
#X connect 6 0 11 0;
#X connect 9 0 0 0;
#X connect 9 0 10 0;
#X connect 11 0 7 0;
#X connect 11 0 7 1;
#X connect 13 0 12 0;
#X connect 13 0 14 0;
#X connect 14 0 2 0;
#X connect 15 0 5 0;
#X connect 15 0 8 0;
